<!--?xml version="1.0" encoding="UTF-8"?-->
<!DOCTYPE svg PUBLIC "-//W3C//DTD SVG 1.1//EN" "http://www.w3.org/Graphics/SVG/1.1/DTD/svg11.dtd">
<svg xmlns="http://www.w3.org/2000/svg" width="900" height="500" viewBox="0 0 1000 600">
    <desc>Bar graph showing total lines per scene in the play</desc>
    
    <!-- Title -->
    <text x="500" y="40" font-size="26" text-anchor="middle" font-family="Times New Roman" font-weight="bold" text-decoration="underline">
        Lines per Scene in <tspan font-style="italic">Romeo and Juliet</tspan> Play
    </text>
    
    <g transform="translate(50, 100)" font-family="Times New Roman">
        <!-- Axes -->
        <line x1="0" y1="400" x2="900" y2="400" stroke="black" stroke-width="2"/>
        <line x1="0" y1="400" x2="0" y2="0" stroke="black" stroke-width="2"/>
        
        <!-- Axes Labels -->
        <text x="-50" y="200" font-size="16" text-anchor="middle" font-weight="bold" transform="rotate(-90,-50,200)">
            Total Lines
        </text>
        <text x="450" y="440" font-size="16" text-anchor="middle" font-weight="bold">
            Scenes
        </text>
        
        <!-- Bars and Data Labels -->
        <!-- Scene numbers above, line numbers on bars, Act numbers below -->
        <g font-size="12" text-anchor="middle">
            <rect x="10" y="350" width="30" height="50" fill="#9CAF88"/>
            <text x="25" y="340" fill="black">Scene 1</text>
            <text x="25" y="420" fill="black">Act I</text>
            <text x="25" y="375" fill="black">50</text>
            
            <rect x="50" y="320" width="30" height="80" fill="#9CAF88"/>
            <text x="65" y="310" fill="black">Scene 2</text>
            <text x="65" y="420" fill="black">Act I</text>
            <text x="65" y="360" fill="black">80</text>
            
            <rect x="90" y="280" width="30" height="120" fill="#9CAF88"/>
            <text x="105" y="270" fill="black">Scene 3</text>
            <text x="105" y="420" fill="black">Act I</text>
            <text x="105" y="320" fill="black">120</text>
            
            <rect x="130" y="250" width="30" height="150" fill="#9CAF88"/>
            <text x="145" y="240" fill="black">Scene 1</text>
            <text x="145" y="420" fill="black">Act II</text>
            <text x="145" y="310" fill="black">150</text>
            
            <rect x="170" y="300" width="30" height="100" fill="#9CAF88"/>
            <text x="185" y="290" fill="black">Scene 2</text>
            <text x="185" y="420" fill="black">Act II</text>
            <text x="185" y="350" fill="black">100</text>
            
            <rect x="210" y="380" width="30" height="20" fill="#9CAF88"/>
            <text x="225" y="370" fill="black">Scene 3</text>
            <text x="225" y="420" fill="black">Act II</text>
            <text x="225" y="390" fill="black">20</text>
            
            <rect x="250" y="290" width="30" height="110" fill="#9CAF88"/>
            <text x="265" y="280" fill="black">Scene 1</text>
            <text x="265" y="420" fill="black">Act III</text>
            <text x="265" y="340" fill="black">110</text>
            
            <rect x="290" y="220" width="30" height="180" fill="#9CAF88"/>
            <text x="305" y="210" fill="black">Scene 2</text>
            <text x="305" y="420" fill="black">Act III</text>
            <text x="305" y="310" fill="black">180</text>
            
            <rect x="330" y="260" width="30" height="140" fill="#9CAF88"/>
            <text x="345" y="250" fill="black">Scene 3</text>
            <text x="345" y="420" fill="black">Act III</text>
            <text x="345" y="330" fill="black">140</text>
            
            <rect x="370" y="300" width="30" height="100" fill="#9CAF88"/>
            <text x="385" y="290" fill="black">Scene 1</text>
            <text x="385" y="420" fill="black">Act IV</text>
            <text x="385" y="350" fill="black">100</text>
            
            <rect x="410" y="350" width="30" height="50" fill="#9CAF88"/>
            <text x="425" y="340" fill="black">Scene 2</text>
            <text x="425" y="420" fill="black">Act IV</text>
            <text x="425" y="375" fill="black">50</text>
            
            <rect x="450" y="200" width="30" height="200" fill="#9CAF88"/>
            <text x="465" y="190" fill="black">Scene 1</text>
            <text x="465" y="420" fill="black">Act V</text>
            <text x="465" y="300" fill="black">200</text>
            
            <rect x="490" y="280" width="30" height="120" fill="#9CAF88"/>
            <text x="505" y="270" fill="black">Scene 2</text>
            <text x="505" y="420" fill="black">Act V</text>
            <text x="505" y="320" fill="black">120</text>
            
            <rect x="530" y="250" width="30" height="150" fill="#9CAF88"/>
            <text x="545" y="240" fill="black">Scene 3</text>
            <text x="545" y="420" fill="black">Act V</text>
            <text x="545" y="310" fill="black">150</text>
        </g>
        
        <!-- Horizontal Grid Lines -->
        <line x1="0" y1="50" x2="950" y2="50" stroke="gray" stroke-dasharray="5,5"/>
        <line x1="0" y1="100" x2="950" y2="100" stroke="gray" stroke-dasharray="5,5"/>
        <line x1="0" y1="150" x2="950" y2="150" stroke="gray" stroke-dasharray="5,5"/>
        <line x1="0" y1="200" x2="950" y2="200" stroke="gray" stroke-dasharray="5,5"/>
        <line x1="0" y1="250" x2="950" y2="250" stroke="gray" stroke-dasharray="5,5"/>
        <line x1="0" y1="300" x2="950" y2="300" stroke="gray" stroke-dasharray="5,5"/>
        <line x1="0" y1="350" x2="950" y2="350" stroke="gray" stroke-dasharray="5,5"/>
        <line x1="0" y1="400" x2="950" y2="400" stroke="gray" stroke-dasharray="5,5"/>
        
        <!-- Y-Axis Labels -->
        <text x="-10" y="400" font-size="14" text-anchor="end">0</text>
        <text x="-10" y="350" font-size="14" text-anchor="end">50</text>
        <text x="-10" y="300" font-size="14" text-anchor="end">100</text>
        <text x="-10" y="250" font-size="14" text-anchor="end">150</text>
        <text x="-10" y="200" font-size="14" text-anchor="end">200</text>
        <text x="-10" y="150" font-size="14" text-anchor="end">250</text>
        <text x="-10" y="100" font-size="14" text-anchor="end">300</text>
        <text x="-10" y="50" font-size="14" text-anchor="end">350</text>
    </g>
</svg>
